<svg xmlns="http://www.w3.org/2000/svg" viewBox="0 0 640 400" role="img" aria-label="Dire Wolf">
<defs>
 <linearGradient id="bg" x1="0" y1="0" x2="1" y2="1"><stop stop-color="#0b1018"/><stop offset="1" stop-color="#151d2b"/></linearGradient>
 <filter id="glow"><feGaussianBlur stdDeviation="5" result="b"/><feMerge><feMergeNode in="b"/><feMergeNode in="SourceGraphic"/></feMerge></filter>
</defs>
<rect width="640" height="400" rx="28" fill="url(#bg)"/>
<path d="M0 310 L640 240 L640 400 L0 400Z" fill="#0d1520"/>
<g stroke="#25d9c7" stroke-opacity=".16"><path d="M0 330H640"/><path d="M0 360H640"/><path d="M70 0V400"/><path d="M570 0V400"/></g>
<g transform="translate(320 190)" filter="url(#glow)"><path d="M-175 75-115-100-40-45 20-135 75-40 165-15 105 110-25 140-140 115Z" fill="#202d39" stroke="#25d9c7" stroke-width="8"/><path d="M-35-28 95-22 145 25 65 62-40 42Z" fill="#0d1218"/><circle cx="65" cy="-9" r="9" fill="#ff587f"/><path d="M90 40 155 55M35 55 65 92M70 60 100 92" stroke="#e7fbff" stroke-width="11"/></g>
<text x="28" y="365" fill="#dfeef2" font-family="system-ui,sans-serif" font-size="27" font-weight="700">Dire Wolf</text>
</svg>