<svg xmlns="http://www.w3.org/2000/svg" viewBox="0 0 640 400" role="img" aria-label="Skeleton">
<defs>
 <linearGradient id="bg" x1="0" y1="0" x2="1" y2="1"><stop stop-color="#0b1018"/><stop offset="1" stop-color="#151d2b"/></linearGradient>
 <filter id="glow"><feGaussianBlur stdDeviation="5" result="b"/><feMerge><feMergeNode in="b"/><feMergeNode in="SourceGraphic"/></feMerge></filter>
</defs>
<rect width="640" height="400" rx="28" fill="url(#bg)"/>
<path d="M0 310 L640 240 L640 400 L0 400Z" fill="#0d1520"/>
<g stroke="#25d9c7" stroke-opacity=".16"><path d="M0 330H640"/><path d="M0 360H640"/><path d="M70 0V400"/><path d="M570 0V400"/></g>
<g transform="translate(320 185)" fill="none" stroke="#eafcff" stroke-width="13" stroke-linecap="round" filter="url(#glow)"><circle cy="-105" r="52" fill="#1a242d" stroke="#25d9c7"/><path d="M0-53V75M-65-15H65M-65-15-110 60M65-15 110 60M0 75-65 145M0 75 65 145M-40 15H40M-45 45H45"/><circle cx="-18" cy="-112" r="7" fill="#25d9c7" stroke="none"/><circle cx="18" cy="-112" r="7" fill="#25d9c7" stroke="none"/></g>
<text x="28" y="365" fill="#dfeef2" font-family="system-ui,sans-serif" font-size="27" font-weight="700">Skeleton</text>
</svg>