<svg xmlns="http://www.w3.org/2000/svg" viewBox="0 0 640 400" role="img" aria-label="Giant Scorpion">
<defs>
 <linearGradient id="bg" x1="0" y1="0" x2="1" y2="1"><stop stop-color="#0b1018"/><stop offset="1" stop-color="#151d2b"/></linearGradient>
 <filter id="glow"><feGaussianBlur stdDeviation="5" result="b"/><feMerge><feMergeNode in="b"/><feMergeNode in="SourceGraphic"/></feMerge></filter>
</defs>
<rect width="640" height="400" rx="28" fill="url(#bg)"/>
<path d="M0 310 L640 240 L640 400 L0 400Z" fill="#0d1520"/>
<g stroke="#25d9c7" stroke-opacity=".16"><path d="M0 330H640"/><path d="M0 360H640"/><path d="M70 0V400"/><path d="M570 0V400"/></g>
<g transform="translate(320 195)" fill="#26343d" stroke="#25d9c7" stroke-width="8" filter="url(#glow)"><ellipse rx="110" ry="70"/><circle cx="-125" cy="-10" r="45"/><path d="M90-10 C190-90 210-175 130-180 C80-184 75-130 115-120" fill="none" stroke-width="22"/><path d="M-125-5-220-65M-125 15-220 75M-60 45-115 125M0 55-20 145M60 45 115 125M-155-25-240-5M-155 25-240 15" fill="none" stroke-linecap="round"/><path d="M130-180 150-215 170-175Z"/></g>
<text x="28" y="365" fill="#dfeef2" font-family="system-ui,sans-serif" font-size="27" font-weight="700">Giant Scorpion</text>
</svg>