<svg xmlns="http://www.w3.org/2000/svg" viewBox="0 0 640 400" role="img" aria-label="Goblin Minion">
<defs>
 <linearGradient id="bg" x1="0" y1="0" x2="1" y2="1"><stop stop-color="#0b1018"/><stop offset="1" stop-color="#151d2b"/></linearGradient>
 <filter id="glow"><feGaussianBlur stdDeviation="5" result="b"/><feMerge><feMergeNode in="b"/><feMergeNode in="SourceGraphic"/></feMerge></filter>
</defs>
<rect width="640" height="400" rx="28" fill="url(#bg)"/>
<path d="M0 310 L640 240 L640 400 L0 400Z" fill="#0d1520"/>
<g stroke="#25d9c7" stroke-opacity=".16"><path d="M0 330H640"/><path d="M0 360H640"/><path d="M70 0V400"/><path d="M570 0V400"/></g>
<g transform="translate(320 190)" filter="url(#glow)"><path d="M0-125 45-70 120-90 75-20 95 90 0 125-95 90-75-20-120-90-45-70Z" fill="#263b31" stroke="#25d9c7" stroke-width="7"/><path d="M-50-25 50-25M-55 55 55 55" stroke="#dff" stroke-width="10"/><circle cx="-35" cy="-20" r="8" fill="#ffdf6f"/><circle cx="35" cy="-20" r="8" fill="#ffdf6f"/><path d="M90 20 155 95M130 70 168 58" stroke="#d7e6ea" stroke-width="12"/></g>
<text x="28" y="365" fill="#dfeef2" font-family="system-ui,sans-serif" font-size="27" font-weight="700">Goblin Minion</text>
</svg>