<svg xmlns="http://www.w3.org/2000/svg" viewBox="0 0 640 400" role="img" aria-label="Goblin Boss">
<defs>
 <linearGradient id="bg" x1="0" y1="0" x2="1" y2="1"><stop stop-color="#0b1018"/><stop offset="1" stop-color="#151d2b"/></linearGradient>
 <filter id="glow"><feGaussianBlur stdDeviation="5" result="b"/><feMerge><feMergeNode in="b"/><feMergeNode in="SourceGraphic"/></feMerge></filter>
</defs>
<rect width="640" height="400" rx="28" fill="url(#bg)"/>
<path d="M0 310 L640 240 L640 400 L0 400Z" fill="#0d1520"/>
<g stroke="#25d9c7" stroke-opacity=".16"><path d="M0 330H640"/><path d="M0 360H640"/><path d="M70 0V400"/><path d="M570 0V400"/></g>
<g transform="translate(320 185)" filter="url(#glow)"><path d="M0-135 55-82 132-105 88-25 105 105 0 138-105 105-88-25-132-105-55-82Z" fill="#31483a" stroke="#25d9c7" stroke-width="8"/><path d="M-75 10H75M-60 65H60" stroke="#eafcff" stroke-width="12"/><path d="M-70-108-25-150 0-115 30-155 75-108" fill="#d9a928" stroke="#ffe989" stroke-width="6"/><circle cx="-38" cy="-24" r="9" fill="#ff5a74"/><circle cx="38" cy="-24" r="9" fill="#ff5a74"/><path d="M120-40V130M90-5 150-5" stroke="#d7e6ea" stroke-width="14"/></g>
<text x="28" y="365" fill="#dfeef2" font-family="system-ui,sans-serif" font-size="27" font-weight="700">Goblin Boss</text>
</svg>