<svg xmlns="http://www.w3.org/2000/svg" viewBox="0 0 640 400" role="img" aria-label="Minotaur Skeleton">
<defs>
 <linearGradient id="bg" x1="0" y1="0" x2="1" y2="1"><stop stop-color="#0b1018"/><stop offset="1" stop-color="#151d2b"/></linearGradient>
 <filter id="glow"><feGaussianBlur stdDeviation="5" result="b"/><feMerge><feMergeNode in="b"/><feMergeNode in="SourceGraphic"/></feMerge></filter>
</defs>
<rect width="640" height="400" rx="28" fill="url(#bg)"/>
<path d="M0 310 L640 240 L640 400 L0 400Z" fill="#0d1520"/>
<g stroke="#25d9c7" stroke-opacity=".16"><path d="M0 330H640"/><path d="M0 360H640"/><path d="M70 0V400"/><path d="M570 0V400"/></g>
<g transform="translate(320 190)" fill="none" stroke="#eafcff" stroke-width="14" stroke-linecap="round" filter="url(#glow)"><circle cy="-92" r="48" fill="#1a242d" stroke="#25d9c7"/><path d="M-40-112-125-155M40-112 125-155M-125-155-150-120M125-155 150-120M0-45V75M-75-5H75M-75-5-125 70M75-5 125 70M0 75-70 150M0 75 70 150M-48 20H48M-52 52H52"/><circle cx="-17" cy="-98" r="7" fill="#25d9c7" stroke="none"/><circle cx="17" cy="-98" r="7" fill="#25d9c7" stroke="none"/></g>
<text x="28" y="365" fill="#dfeef2" font-family="system-ui,sans-serif" font-size="27" font-weight="700">Minotaur Skeleton</text>
</svg>