<svg xmlns="http://www.w3.org/2000/svg" viewBox="0 0 640 400" role="img" aria-label="Ogre">
<defs>
 <linearGradient id="bg" x1="0" y1="0" x2="1" y2="1"><stop stop-color="#0b1018"/><stop offset="1" stop-color="#151d2b"/></linearGradient>
 <filter id="glow"><feGaussianBlur stdDeviation="5" result="b"/><feMerge><feMergeNode in="b"/><feMergeNode in="SourceGraphic"/></feMerge></filter>
</defs>
<rect width="640" height="400" rx="28" fill="url(#bg)"/>
<path d="M0 310 L640 240 L640 400 L0 400Z" fill="#0d1520"/>
<g stroke="#25d9c7" stroke-opacity=".16"><path d="M0 330H640"/><path d="M0 360H640"/><path d="M70 0V400"/><path d="M570 0V400"/></g>
<g transform="translate(320 190)" filter="url(#glow)"><path d="M0-135 105-95 145 25 105 140-105 140-145 25-105-95Z" fill="#3d4035" stroke="#25d9c7" stroke-width="8"/><circle cx="-42" cy="-35" r="11" fill="#ff7b56"/><circle cx="42" cy="-35" r="11" fill="#ff7b56"/><path d="M-55 30H55M-90 85H90" stroke="#eafcff" stroke-width="13"/><path d="M135-25 185 120M150 15 205-5" stroke="#a98555" stroke-width="24"/></g>
<text x="28" y="365" fill="#dfeef2" font-family="system-ui,sans-serif" font-size="27" font-weight="700">Ogre</text>
</svg>