<svg xmlns="http://www.w3.org/2000/svg" viewBox="0 0 640 400" role="img" aria-label="Troll">
<defs>
 <linearGradient id="bg" x1="0" y1="0" x2="1" y2="1"><stop stop-color="#0b1018"/><stop offset="1" stop-color="#151d2b"/></linearGradient>
 <filter id="glow"><feGaussianBlur stdDeviation="5" result="b"/><feMerge><feMergeNode in="b"/><feMergeNode in="SourceGraphic"/></feMerge></filter>
</defs>
<rect width="640" height="400" rx="28" fill="url(#bg)"/>
<path d="M0 310 L640 240 L640 400 L0 400Z" fill="#0d1520"/>
<g stroke="#25d9c7" stroke-opacity=".16"><path d="M0 330H640"/><path d="M0 360H640"/><path d="M70 0V400"/><path d="M570 0V400"/></g>
<g transform="translate(320 190)" filter="url(#glow)"><path d="M0-140 95-100 130 5 110 145 35 115 0 150-35 115-110 145-130 5-95-100Z" fill="#28443b" stroke="#25d9c7" stroke-width="8"/><circle cx="-38" cy="-40" r="10" fill="#ffb65a"/><circle cx="38" cy="-40" r="10" fill="#ffb65a"/><path d="M-55 20H55M-75 68H75" stroke="#eafcff" stroke-width="13"/><path d="M-120 20-205 120M120 20 205 120" stroke="#6d9b82" stroke-width="24"/></g>
<text x="28" y="365" fill="#dfeef2" font-family="system-ui,sans-serif" font-size="27" font-weight="700">Troll</text>
</svg>