<svg xmlns="http://www.w3.org/2000/svg" viewBox="0 0 640 400" role="img" aria-label="Wolf">
<defs>
 <linearGradient id="bg" x1="0" y1="0" x2="1" y2="1"><stop stop-color="#0b1018"/><stop offset="1" stop-color="#151d2b"/></linearGradient>
 <filter id="glow"><feGaussianBlur stdDeviation="5" result="b"/><feMerge><feMergeNode in="b"/><feMergeNode in="SourceGraphic"/></feMerge></filter>
</defs>
<rect width="640" height="400" rx="28" fill="url(#bg)"/>
<path d="M0 310 L640 240 L640 400 L0 400Z" fill="#0d1520"/>
<g stroke="#25d9c7" stroke-opacity=".16"><path d="M0 330H640"/><path d="M0 360H640"/><path d="M70 0V400"/><path d="M570 0V400"/></g>
<g transform="translate(320 190)" filter="url(#glow)"><path d="M-150 70-100-80-35-40 20-115 65-35 145-10 90 95-20 125-120 105Z" fill="#283642" stroke="#25d9c7" stroke-width="7"/><path d="M-25-25 80-20 120 20 55 45-30 35Z" fill="#111820"/><circle cx="55" cy="-8" r="8" fill="#7cf7e7"/><path d="M80 30 130 45" stroke="#e7fbff" stroke-width="10"/></g>
<text x="28" y="365" fill="#dfeef2" font-family="system-ui,sans-serif" font-size="27" font-weight="700">Wolf</text>
</svg>