<svg xmlns="http://www.w3.org/2000/svg" viewBox="0 0 640 400" role="img" aria-label="Young Red Dragon">
<defs>
 <linearGradient id="bg" x1="0" y1="0" x2="1" y2="1"><stop stop-color="#0b1018"/><stop offset="1" stop-color="#151d2b"/></linearGradient>
 <filter id="glow"><feGaussianBlur stdDeviation="5" result="b"/><feMerge><feMergeNode in="b"/><feMergeNode in="SourceGraphic"/></feMerge></filter>
</defs>
<rect width="640" height="400" rx="28" fill="url(#bg)"/>
<path d="M0 310 L640 240 L640 400 L0 400Z" fill="#0d1520"/>
<g stroke="#25d9c7" stroke-opacity=".16"><path d="M0 330H640"/><path d="M0 360H640"/><path d="M70 0V400"/><path d="M570 0V400"/></g>
<g transform="translate(320 190)" filter="url(#glow)"><path d="M0-165 75-85 190-135 125-20 205 105 65 80 0 165-65 80-205 105-125-20-190-135-75-85Z" fill="#54272c" stroke="#25d9c7" stroke-width="9"/><path d="M-115-25 0 35 115-25M0 35 0 130" fill="none" stroke="#ff644e" stroke-width="16"/><circle cx="-38" cy="-65" r="10" fill="#ffe06d"/><circle cx="38" cy="-65" r="10" fill="#ffe06d"/><path d="M0-125-55-190M0-125 55-190" stroke="#eafcff" stroke-width="13"/></g>
<text x="28" y="365" fill="#dfeef2" font-family="system-ui,sans-serif" font-size="27" font-weight="700">Young Red Dragon</text>
</svg>