<svg xmlns="http://www.w3.org/2000/svg" viewBox="0 0 640 400" role="img" aria-label="Seated Dumbbell Press">
<defs>
 <linearGradient id="bg" x1="0" y1="0" x2="1" y2="1"><stop stop-color="#0b1018"/><stop offset="1" stop-color="#151d2b"/></linearGradient>
 <filter id="glow"><feGaussianBlur stdDeviation="5" result="b"/><feMerge><feMergeNode in="b"/><feMergeNode in="SourceGraphic"/></feMerge></filter>
</defs>
<rect width="640" height="400" rx="28" fill="url(#bg)"/>
<path d="M0 310 L640 240 L640 400 L0 400Z" fill="#0d1520"/>
<g stroke="#25d9c7" stroke-opacity=".16"><path d="M0 330H640"/><path d="M0 360H640"/><path d="M70 0V400"/><path d="M570 0V400"/></g>
<g fill="none" stroke="#eafcff" stroke-width="11" stroke-linecap="round"><path d="M180 290V150M180 230H285" stroke="#25d9c7"/><circle cx="330" cy="145" r="24"/><path d="M315 168 285 230 330 270M300 190 250 125M360 190 410 125M330 270 275 300M330 270 380 300"/><path d="M220 105H275M385 105H440" stroke="#25d9c7" stroke-width="16"/></g>
<text x="28" y="365" fill="#dfeef2" font-family="system-ui,sans-serif" font-size="27" font-weight="700">Seated Dumbbell Press</text>
</svg>