<svg xmlns="http://www.w3.org/2000/svg" viewBox="0 0 640 400" role="img" aria-label="StatForge d20 logo">
<defs>
 <linearGradient id="bg" x1="0" y1="0" x2="1" y2="1"><stop stop-color="#0b1018"/><stop offset="1" stop-color="#151d2b"/></linearGradient>
 <filter id="glow"><feGaussianBlur stdDeviation="5" result="b"/><feMerge><feMergeNode in="b"/><feMergeNode in="SourceGraphic"/></feMerge></filter>
</defs>
<rect width="640" height="400" rx="28" fill="url(#bg)"/>
<path d="M0 310 L640 240 L640 400 L0 400Z" fill="#0d1520"/>
<g stroke="#25d9c7" stroke-opacity=".16"><path d="M0 330H640"/><path d="M0 360H640"/><path d="M70 0V400"/><path d="M570 0V400"/></g>

<g transform="translate(320 185)" filter="url(#glow)">
 <path d="M0-132 123-43 76 108-76 108-123-43Z" fill="#0f2730" stroke="#25d9c7" stroke-width="8"/>
 <path d="M0-132 0 6 123-43M0 6-76 108M0 6 76 108M-123-43 0 6M-123-43 123-43" fill="none" stroke="#58f4e2" stroke-width="5" opacity=".85"/>
 <circle cx="0" cy="6" r="43" fill="#091117" stroke="#25d9c7" stroke-width="5"/>
 <text x="0" y="22" text-anchor="middle" fill="#eaffff" font-family="system-ui,sans-serif" font-size="48" font-weight="900">20</text>
</g>
<text x="28" y="365" fill="#dfeef2" font-family="system-ui,sans-serif" font-size="27" font-weight="700">StatForge d20 logo</text>
</svg>